<svg xmlns="http://www.w3.org/2000/svg" xmlns:xlink="http://www.w3.org/1999/xlink" preserveAspectRatio="xMidYMid meet" width="2000" height="2000" viewBox="0 0 2000 2000" style="width:100%;height:100%"><defs><animateMotion repeatCount="indefinite" dur="1.4166667s" begin="0s" xlink:href="#_R_G_L_0_G_D_2_P_0_G_0_T_0" fill="freeze" keyTimes="0;0.4411765;0.8823529;1" path="M289.27 588.7 C289.27,588.7 185.41,593.95 185.41,593.95 C185.41,593.95 289.27,588.7 289.27,588.7 C289.27,588.7 289.27,588.7 289.27,588.7 " keyPoints="0;0.5;1;1" keySplines="0.167 0.167 0.667 1;0.333 0 0.833 0.833;0 0 0 0" calcMode="spline"/><animateTransform repeatCount="indefinite" dur="1.4166667s" begin="0s" xlink:href="#_R_G_L_0_G_D_3_P_0_G_0_T_0" fill="freeze" attributeName="transform" from="0" to="0" type="rotate" additive="sum" keyTimes="0;0.4411765;0.8823529;1" values="0;133.13;0;0" keySplines="0.167 0.167 0.667 1;0.333 0 0.833 0.833;0 0 0 0" calcMode="spline"/><animateMotion repeatCount="indefinite" dur="1.4166667s" begin="0s" xlink:href="#_R_G_L_0_G_D_4_P_0_G_0_T_0" fill="freeze" keyTimes="0;0.4411765;0.8823529;1" path="M791.89 587.8 C791.89,587.8 898.5,587.22 898.5,587.22 C898.5,587.22 791.89,587.8 791.89,587.8 C791.89,587.8 791.89,587.8 791.89,587.8 " keyPoints="0;0.5;1;1" keySplines="0.167 0.167 0.667 1;0.333 0 0.833 0.833;0 0 0 0" calcMode="spline"/><animate attributeType="XML" attributeName="opacity" dur="1s" from="0" to="1" xlink:href="#time_group"/></defs><g id="_R_G"><g id="_R_G_L_0_G" transform=" translate(1000, 1000) scale(1.9850700000000001, 1.97624) translate(-540, -540)"><path id="_R_G_L_0_G_D_0_P_0" stroke="#ffffff" stroke-linecap="round" stroke-linejoin="round" fill="none" stroke-width="30" stroke-opacity="1" d=" M70.03 130.62 C70.03,130.62 1009,130.62 1009,130.62 C1009,130.62 1009,255.02 1009,255.02 C1009,255.02 1009,910.56 1009,910.56 C1009,910.56 70.03,910.56 70.03,910.56 C70.03,910.56 70.03,130.62 70.03,130.62z "/><path id="_R_G_L_0_G_D_1_P_0" stroke="#ffffff" stroke-linecap="round" stroke-linejoin="round" fill="none" stroke-width="30" stroke-opacity="1" d=" M70.03 254.65 C70.03,254.65 1009,255.02 1009,255.02 "/><g id="_R_G_L_0_G_D_2_P_0_G_0_T_0"><path id="_R_G_L_0_G_D_2_P_0" stroke="#ffffff" stroke-linecap="round" stroke-linejoin="round" fill="none" stroke-width="40" stroke-opacity="1" d=" M64.04 -140.86 C64.04,-140.86 -64.04,-4.33 -64.04,-4.33 C-64.04,-4.33 63.83,140.86 63.83,140.86 "/></g><g id="_R_G_L_0_G_D_3_P_0_G_0_T_0" transform=" translate(540.671, 588.278)"><path id="_R_G_L_0_G_D_3_P_0" stroke="#ffffff" stroke-linecap="round" stroke-linejoin="round" fill="none" stroke-width="40" stroke-opacity="1" d=" M66.82 -208.64 C66.82,-208.64 -66.82,208.64 -66.82,208.64 "/></g><g id="_R_G_L_0_G_D_4_P_0_G_0_T_0"><path id="_R_G_L_0_G_D_4_P_0" stroke="#ffffff" stroke-linecap="round" stroke-linejoin="round" fill="none" stroke-width="40" stroke-opacity="1" d=" M-67.91 -140.86 C-67.91,-140.86 67.91,0.48 67.91,0.48 C67.91,0.48 -67.91,140.86 -67.91,140.86 "/></g><path id="_R_G_L_0_G_D_5_P_0" stroke="#ffffff" stroke-linecap="round" stroke-linejoin="round" fill="none" stroke-width="30" stroke-opacity="1" d=" M239.25 194.07 C239.25,197.79 236.23,200.8 232.52,200.8 C228.8,200.8 225.79,197.79 225.79,194.07 C225.79,190.36 228.8,187.34 232.52,187.34 C236.23,187.34 239.25,190.36 239.25,194.07z "/><path id="_R_G_L_0_G_D_6_P_0" stroke="#ffffff" stroke-linecap="round" stroke-linejoin="round" fill="none" stroke-width="30" stroke-opacity="1" d=" M185.4 194.07 C185.4,197.79 182.39,200.8 178.67,200.8 C174.96,200.8 171.94,197.79 171.94,194.07 C171.94,190.36 174.96,187.34 178.67,187.34 C182.39,187.34 185.4,190.36 185.4,194.07z "/><path id="_R_G_L_0_G_D_7_P_0" stroke="#ffffff" stroke-linecap="round" stroke-linejoin="round" fill="none" stroke-width="30" stroke-opacity="1" d=" M133.48 194.07 C133.48,197.79 130.47,200.8 126.76,200.8 C123.04,200.8 120.02,197.79 120.02,194.07 C120.02,190.36 123.04,187.34 126.76,187.34 C130.47,187.34 133.48,190.36 133.48,194.07z "/></g></g><g id="time_group"/></svg>