<svg xmlns="http://www.w3.org/2000/svg" xmlns:xlink="http://www.w3.org/1999/xlink" preserveAspectRatio="xMidYMid meet" width="2000" height="2000" viewBox="0 0 2000 2000" style="width:100%;height:100%"><defs><animate repeatCount="indefinite" dur="1.3333333s" begin="0s" xlink:href="#_R_G_L_2_G_M" fill="freeze" attributeName="opacity" from="0" to="0" keyTimes="0;0.125;0.1250063;0.875;0.8750001;1" values="0;0;1;1;0;0" keySplines="0 0 0 0;0 0 0 0;0 0 0 0;0 0 0 0;0 0 0 0" calcMode="spline"/><animate repeatCount="indefinite" dur="1.3333333s" begin="0s" xlink:href="#_R_G_L_1_G_M" fill="freeze" attributeName="opacity" from="0" to="0" keyTimes="0;0.25;0.2500063;0.7625;0.7625001;1" values="0;0;1;1;0;0" keySplines="0 0 0 0;0 0 0 0;0 0 0 0;0 0 0 0;0 0 0 0" calcMode="spline"/><animate repeatCount="indefinite" dur="1.3333333s" begin="0s" xlink:href="#_R_G_L_0_G_M" fill="freeze" attributeName="opacity" from="0" to="0" keyTimes="0;0.375;0.3750063;0.625;0.6250001;1" values="0;0;1;1;0;0" keySplines="0 0 0 0;0 0 0 0;0 0 0 0;0 0 0 0;0 0 0 0" calcMode="spline"/><animate attributeType="XML" attributeName="opacity" dur="1s" from="0" to="1" xlink:href="#time_group"/></defs><g id="_R_G"><g id="_R_G_L_3_G" transform=" translate(1000, 1000) scale(1.86154, 1.86154) translate(-540, -540)"><path id="_R_G_L_3_G_D_0_P_0" stroke="#ffffff" stroke-linecap="round" stroke-linejoin="round" fill="none" stroke-width="52" stroke-opacity="1" d=" M100 386 C158.14,192.32 335.01,61 547.62,61 C781.64,61 947.83,213.65 995,386 "/><path id="_R_G_L_3_G_D_1_P_0" stroke="#ffffff" stroke-linecap="round" stroke-linejoin="round" fill="none" stroke-width="52" stroke-opacity="1" d=" M995 667 C979.28,744.52 846.03,1001.68 547.62,1001.38 C347.23,1001.18 162.62,865.97 100,673.82 C97.12,665 94.5,656.05 92.15,647 "/><path id="_R_G_L_3_G_D_2_P_0" stroke="#ffffff" stroke-linecap="round" stroke-linejoin="round" fill="none" stroke-width="52" stroke-opacity="1" d=" M547.62 646.68 C547.62,764.92 547.62,883.15 547.62,1001.38 "/><path id="_R_G_L_3_G_D_3_P_0" stroke="#ffffff" stroke-linecap="round" stroke-linejoin="round" fill="none" stroke-width="52" stroke-opacity="1" d=" M547.62 61 C547.62,61 548,395 548,395 "/><path id="_R_G_L_3_G_D_4_P_0" stroke="#ffffff" stroke-linecap="round" stroke-linejoin="round" fill="none" stroke-width="52" stroke-opacity="1" d=" M311.26 667.63 C353.47,834.2 435.01,938.78 537.92,993.62 "/><path id="_R_G_L_3_G_D_5_P_0" stroke="#ffffff" stroke-linecap="round" stroke-linejoin="round" fill="none" stroke-width="52" stroke-opacity="1" d=" M523 62 C450.41,131.33 349.56,244.81 306.79,377.76 "/><path id="_R_G_L_3_G_D_6_P_0" stroke="#ffffff" stroke-linecap="round" stroke-linejoin="round" fill="none" stroke-width="52" stroke-opacity="1" d=" M765.7 386.2 C721.23,206.79 624.64,101.09 565.09,62.29 "/><path id="_R_G_L_3_G_D_7_P_0" stroke="#ffffff" stroke-linecap="round" stroke-linejoin="round" fill="none" stroke-width="52" stroke-opacity="1" d=" M565 986 C636.17,942.5 741.77,810.84 774,647 "/><path id="_R_G_L_3_G_D_8_P_0" stroke="#ffffff" stroke-linecap="round" stroke-linejoin="round" fill="none" stroke-width="52" stroke-opacity="1" d=" M224.64 189.5 C331,226 440.08,245 548,245 C655.53,245 769,226 871,189.5 "/><path id="_R_G_L_3_G_D_9_P_0" stroke="#ffffff" stroke-linecap="round" stroke-linejoin="round" fill="none" stroke-width="52" stroke-opacity="1" d=" M871 858 C764.64,821.5 655.56,802.5 547.64,802.5 C440.1,802.5 326.64,821.5 224.64,858 "/></g><g id="_R_G_L_2_G_M"><g id="_R_G_L_2_G" transform=" translate(760, 1000) scale(0.96154, 0.96154) translate(-540, -540)"><path id="_R_G_L_2_G_D_0_P_0" stroke="#ffffff" stroke-linecap="round" stroke-linejoin="round" fill="none" stroke-width="52" stroke-opacity="1" d=" M137 441.03 C137,441.03 190.04,611.33 190.04,611.33 C190.04,611.33 239.01,441.03 239.01,441.03 C239.01,441.03 288.63,604.84 288.63,604.84 C288.63,604.84 340.72,441.03 340.72,441.03 "/></g></g><g id="_R_G_L_1_G_M"><g id="_R_G_L_1_G" transform=" translate(1000, 1000) scale(0.96154, 0.96154) translate(-540, -540)"><path id="_R_G_L_1_G_D_0_P_0" stroke="#ffffff" stroke-linecap="round" stroke-linejoin="round" fill="none" stroke-width="52" stroke-opacity="1" d=" M443.51 441.03 C443.51,441.03 496.55,611.33 496.55,611.33 C496.55,611.33 545.51,441.03 545.51,441.03 C545.51,441.03 595.14,604.84 595.14,604.84 C595.14,604.84 647.23,441.03 647.23,441.03 "/></g></g><g id="_R_G_L_0_G_M"><g id="_R_G_L_0_G" transform=" translate(1224, 1000) scale(0.96154, 0.96154) translate(-540, -540)"><path id="_R_G_L_0_G_D_0_P_0" stroke="#ffffff" stroke-linecap="round" stroke-linejoin="round" fill="none" stroke-width="52" stroke-opacity="1" d=" M754.47 441.03 C754.47,441.03 807.51,611.33 807.51,611.33 C807.51,611.33 856.48,441.03 856.48,441.03 C856.48,441.03 906.1,604.84 906.1,604.84 C906.1,604.84 958.19,441.03 958.19,441.03 "/></g></g></g><g id="time_group"/></svg>