<svg xmlns="http://www.w3.org/2000/svg" xmlns:xlink="http://www.w3.org/1999/xlink" preserveAspectRatio="xMidYMid meet" width="2000" height="2000" viewBox="0 0 2000 2000" style="width:100%;height:100%"><defs><animateTransform repeatCount="indefinite" dur="7.5s" begin="0s" xlink:href="#_R_G_L_1_G" fill="freeze" attributeName="transform" from="0" to="360" type="rotate" additive="sum" keyTimes="0;0.9944444;1" values="0;360;360" keySplines="0.167 0.167 0.833 0.833;0 0 0 0" calcMode="spline"/><animateTransform repeatCount="indefinite" dur="7.5s" begin="0s" xlink:href="#_R_G_L_1_G" fill="freeze" attributeName="transform" from="1.8296299999999999 1.81481" to="1.8296299999999999 1.81481" type="scale" additive="sum" keyTimes="0;1" values="1.8296299999999999 1.81481;1.8296299999999999 1.81481" keySplines="0 0 1 1" calcMode="spline"/><animateTransform repeatCount="indefinite" dur="7.5s" begin="0s" xlink:href="#_R_G_L_1_G" fill="freeze" attributeName="transform" from="-540 -540" to="-540 -540" type="translate" additive="sum" keyTimes="0;1" values="-540 -540;-540 -540" keySplines="0 0 1 1" calcMode="spline"/><animate attributeType="XML" attributeName="opacity" dur="8s" from="0" to="1" xlink:href="#time_group"/></defs><g id="_R_G"><g id="_R_G_L_1_G" transform=" translate(1000, 1000)"><path id="_R_G_L_1_G_D_0_P_0" stroke="#ffffff" stroke-linecap="round" stroke-linejoin="round" fill="none" stroke-width="58" stroke-opacity="1" d=" M753.32 539 C753.32,659.03 656.02,756.33 535.99,756.33 C415.96,756.33 318.66,659.03 318.66,539 C318.66,418.97 415.96,321.67 535.99,321.67 C656.02,321.67 753.32,418.97 753.32,539z "/><path id="_R_G_L_1_G_D_1_P_0" stroke="#ffffff" stroke-linecap="round" stroke-linejoin="round" fill="none" stroke-width="58" stroke-opacity="1" d=" M550 310 C548.01,288.27 550.5,220.79 589,163 C602.07,143.38 642.45,82.77 714,78 C772.02,74.13 813.59,109.44 825,120 C835.75,129.95 874.01,166.54 875,225 C875.62,261.32 860.67,287.4 845,314 C830.52,338.58 794.27,390.13 733,427 "/><path id="_R_G_L_1_G_D_2_P_0" stroke="#ffffff" stroke-linecap="round" stroke-linejoin="round" fill="none" stroke-width="58" stroke-opacity="1" d=" M742.58 433.49 C761.21,421.47 823.18,391.92 893.38,399.38 C917.2,401.92 990.83,409.75 1028.83,471.95 C1059.65,522.4 1047.42,576.48 1043.28,591.74 C1039.38,606.1 1024.44,657.81 972.24,686.24 C939.81,703.9 909.28,702.72 877.93,701.14 C848.97,699.67 785.45,691.29 723.38,653.47 "/><path id="_R_G_L_1_G_D_3_P_0" stroke="#ffffff" stroke-linecap="round" stroke-linejoin="round" fill="none" stroke-width="58" stroke-opacity="1" d=" M335.07 655.81 C316.41,667.8 254.38,697.22 184.2,689.61 C160.38,687.03 86.77,679.05 48.89,616.76 C18.18,566.26 30.52,512.2 34.69,496.95 C38.62,482.59 53.66,430.92 105.92,402.59 C138.39,385 168.92,386.24 200.26,387.89 C229.21,389.41 292.72,397.92 354.72,435.87 "/><path id="_R_G_L_1_G_D_4_P_0" stroke="#ffffff" stroke-linecap="round" stroke-linejoin="round" fill="none" stroke-width="58" stroke-opacity="1" d=" M348.39 427.03 C328.16,418.87 269.27,385.82 235.46,325.17 C223.98,304.58 188.52,240.96 216.97,175.14 C240.04,121.77 290.45,100.92 305.06,95.6 C318.82,90.58 368.85,73.27 421.3,99.1 C453.89,115.15 470.26,140.36 486.76,166.46 C502,190.57 531.29,246.37 536.09,317.72 "/><path id="_R_G_L_1_G_D_5_P_0" stroke="#ffffff" stroke-linecap="round" stroke-linejoin="round" fill="none" stroke-width="58" stroke-opacity="1" d=" M530.19 766.73 C532.18,788.46 529.7,855.94 491.19,913.73 C478.12,933.35 437.74,993.96 366.19,998.73 C308.18,1002.6 266.6,967.29 255.19,956.73 C244.45,946.79 206.18,910.2 205.19,851.73 C204.58,815.41 219.52,789.34 235.19,762.73 C249.67,738.16 285.93,686.6 347.19,649.73 "/><path id="_R_G_L_1_G_D_6_P_0" stroke="#ffffff" stroke-linecap="round" stroke-linejoin="round" fill="none" stroke-width="58" stroke-opacity="1" d=" M731.8 649.71 C752.04,657.87 810.93,690.91 844.73,751.57 C856.21,772.16 891.67,835.78 863.22,901.6 C840.15,954.97 789.75,975.81 775.14,981.14 C761.38,986.15 711.35,1003.47 658.89,977.63 C626.31,961.58 609.94,936.37 593.44,910.28 C578.19,886.17 548.91,830.36 544.11,759.02 "/><path id="_R_G_L_1_G_D_7_P_0" stroke="#ffffff" stroke-linecap="round" stroke-linejoin="round" fill="none" stroke-width="58" stroke-opacity="1" d=" M651 348 C651,348 717,234 717,234 "/><path id="_R_G_L_1_G_D_8_P_0" stroke="#ffffff" stroke-linecap="round" stroke-linejoin="round" fill="none" stroke-width="58" stroke-opacity="1" d=" M762.34 541.97 C762.34,541.97 890.14,544.49 890.14,544.49 "/><path id="_R_G_L_1_G_D_9_P_0" stroke="#ffffff" stroke-linecap="round" stroke-linejoin="round" fill="none" stroke-width="58" stroke-opacity="1" d=" M647 734 C647,734 709.06,846.7 709.06,846.7 "/><path id="_R_G_L_1_G_D_10_P_0" stroke="#ffffff" stroke-linecap="round" stroke-linejoin="round" fill="none" stroke-width="58" stroke-opacity="1" d=" M426.34 734 C426.34,734 362,847 362,847 "/><path id="_R_G_L_1_G_D_11_P_0" stroke="#ffffff" stroke-linecap="round" stroke-linejoin="round" fill="none" stroke-width="58" stroke-opacity="1" d=" M307.71 539.46 C307.71,539.46 186.02,535.46 186.02,535.46 "/><path id="_R_G_L_1_G_D_12_P_0" stroke="#ffffff" stroke-linecap="round" stroke-linejoin="round" fill="none" stroke-width="58" stroke-opacity="1" d=" M429 340 C429,340 367,227 367,227 "/></g><g id="_R_G_L_0_G" transform=" translate(1000, 1000) scale(1.44959, 1.43785) translate(-540, -540)"><path id="_R_G_L_0_G_D_0_P_0" stroke="#ffffff" stroke-linecap="round" stroke-linejoin="round" fill="none" stroke-width="38" stroke-opacity="1" d=" M390 539 C383.38,619.88 443.98,690.53 521,697 C601.67,703.78 675.53,638.08 677,553 "/><path id="_R_G_L_0_G_D_1_P_0" fill="#ffffff" fill-opacity="1" fill-rule="nonzero" d=" M616 470.42 C616,502.32 608.84,528.17 600,528.17 C591.16,528.17 584,502.32 584,470.42 C584,438.52 591.16,412.67 600,412.67 C608.84,412.67 616,438.52 616,470.42z "/><path id="_R_G_L_0_G_D_2_P_0" stroke="#ffffff" stroke-linecap="round" stroke-linejoin="round" fill="none" stroke-width="38" stroke-opacity="1" d=" M616 470.42 C616,502.32 608.84,528.17 600,528.17 C591.16,528.17 584,502.32 584,470.42 C584,438.52 591.16,412.67 600,412.67 C608.84,412.67 616,438.52 616,470.42z "/><path id="_R_G_L_0_G_D_3_P_0" fill="#ffffff" fill-opacity="1" fill-rule="nonzero" d=" M499 470.42 C499,502.32 491.84,528.17 483,528.17 C474.16,528.17 467,502.32 467,470.42 C467,438.52 474.16,412.67 483,412.67 C491.84,412.67 499,438.52 499,470.42z "/><path id="_R_G_L_0_G_D_4_P_0" stroke="#ffffff" stroke-linecap="round" stroke-linejoin="round" fill="none" stroke-width="38" stroke-opacity="1" d=" M499 470.42 C499,502.32 491.84,528.17 483,528.17 C474.16,528.17 467,502.32 467,470.42 C467,438.52 474.16,412.67 483,412.67 C491.84,412.67 499,438.52 499,470.42z "/><path id="_R_G_L_0_G_D_5_P_0" stroke="#ffffff" stroke-linecap="round" stroke-linejoin="round" fill="none" stroke-width="38" stroke-opacity="1" d=" M370 550 C370.79,548.87 377.57,539.61 390,539 C402.44,538.39 410.1,546.96 411,548 "/><path id="_R_G_L_0_G_D_6_P_0" stroke="#ffffff" stroke-linecap="round" stroke-linejoin="round" fill="none" stroke-width="38" stroke-opacity="1" d=" M657 553 C657.79,551.87 664.57,542.61 677,542 C689.44,541.39 697.1,549.96 698,551 "/></g></g><g id="time_group"/></svg>