<svg xmlns="http://www.w3.org/2000/svg" xmlns:xlink="http://www.w3.org/1999/xlink" preserveAspectRatio="xMidYMid meet" width="2000" height="2000" viewBox="0 0 2000 2000" style="width:100%;height:100%"><defs><animateMotion repeatCount="indefinite" dur="1.2916667s" begin="0s" xlink:href="#_R_G_L_0_G_D_9_P_0_G_0_T_0" fill="freeze" keyTimes="0;0.4193548;0.8064516;1" path="M912.5 922.5 C912.5,922.5 1144.31,1120.45 1144.31,1120.45 C1144.31,1120.45 912.5,922.5 912.5,922.5 C912.5,922.5 912.5,922.5 912.5,922.5 " keyPoints="0;0.5;1;1" keySplines="0.167 0.167 0.667 1;0.333 0 0.833 0.833;0 0 0 0" calcMode="spline"/><animate attributeType="XML" attributeName="opacity" dur="1s" from="0" to="1" xlink:href="#time_group"/></defs><g id="_R_G"><g id="_R_G_L_0_G" transform=" translate(1000, 1000) translate(-607.5, -597)"><path id="_R_G_L_0_G_D_0_P_0" stroke="#ffffff" stroke-linecap="round" stroke-linejoin="round" fill="none" stroke-width="30" stroke-opacity="1" d=" M740.92 999.97 C678.87,1027.51 610.17,1042.81 537.91,1042.81 C261.26,1042.81 37,818.55 37,541.91 C37,265.26 261.26,41 537.91,41 C814.55,41 1038.81,265.26 1038.81,541.91 C1038.81,612.16 1024.35,679.04 998.24,739.72 "/><path id="_R_G_L_0_G_D_1_P_0" stroke="#ffffff" stroke-linecap="round" stroke-linejoin="round" fill="none" stroke-width="30" stroke-opacity="1" d=" M537.91 41 C537.91,41 537.91,1042.81 537.91,1042.81 "/><path id="_R_G_L_0_G_D_2_P_0" stroke="#ffffff" stroke-linecap="round" stroke-linejoin="round" fill="none" stroke-width="30" stroke-opacity="1" d=" M517 42 C408.79,145.35 259,344 262.21,556.38 C266.1,813.33 393.11,962.89 527.57,1034.55 "/><path id="_R_G_L_0_G_D_3_P_0" stroke="#ffffff" stroke-linecap="round" stroke-linejoin="round" fill="none" stroke-width="30" stroke-opacity="1" d=" M798 632 C797.38,294.72 634.36,105.1 556.51,42.38 "/><path id="_R_G_L_0_G_D_4_P_0" stroke="#ffffff" stroke-linecap="round" stroke-linejoin="round" fill="none" stroke-width="30" stroke-opacity="1" d=" M554 1035 C590.03,1012.6 658.18,937.74 697,875 "/><path id="_R_G_L_0_G_D_5_P_0" stroke="#ffffff" stroke-linecap="round" stroke-linejoin="round" fill="none" stroke-width="30" stroke-opacity="1" d=" M193.82 177.89 C193.82,177.89 862.07,177.89 862.07,177.89 "/><path id="_R_G_L_0_G_D_6_P_0" stroke="#ffffff" stroke-linecap="round" stroke-linejoin="round" fill="none" stroke-width="30" stroke-opacity="1" d=" M1020.58 407.55 C1020.58,407.55 55.23,407.55 55.23,407.55 "/><path id="_R_G_L_0_G_D_7_P_0" stroke="#ffffff" stroke-linecap="round" stroke-linejoin="round" fill="none" stroke-width="30" stroke-opacity="1" d=" M48.7 649.99 C48.7,649.99 1027.12,649.99 1027.12,649.99 "/><path id="_R_G_L_0_G_D_8_P_0" stroke="#ffffff" stroke-linecap="round" stroke-linejoin="round" fill="none" stroke-width="30" stroke-opacity="1" d=" M171 875 C171,875 696.86,875 696.86,875 "/><g id="_R_G_L_0_G_D_9_P_0_G_0_T_0"><path id="_R_G_L_0_G_D_9_P_0" fill="#ffffff" fill-opacity="1" fill-rule="nonzero" d=" M-204.5 -203.5 C-204.5,-203.5 -80.5,172.5 -80.5,172.5 C-80.5,172.5 -19.17,62.86 -19.17,62.86 C-19.17,62.86 123.5,203.5 123.5,203.5 C123.5,203.5 204.5,122.5 204.5,122.5 C204.5,122.5 63.57,-20.35 63.57,-20.35 C63.57,-20.35 178.5,-79.5 178.5,-79.5 C178.5,-79.5 -204.5,-203.5 -204.5,-203.5z "/></g></g></g><g id="time_group"/></svg>