<svg xmlns="http://www.w3.org/2000/svg" xmlns:xlink="http://www.w3.org/1999/xlink" preserveAspectRatio="xMidYMid meet" width="2000" height="2000" viewBox="0 0 2000 2000" style="width:100%;height:100%"><defs><animateTransform repeatCount="indefinite" dur="1.375s" begin="0s" xlink:href="#_R_G_L_1_G" fill="freeze" attributeName="transform" from="0" to="-90" type="rotate" additive="sum" keyTimes="0;0.3393939;0.630303;1" values="0;-90;-90;-90" keySplines="0.167 0.167 0.667 1;0.333 0 0.667 0;0 0 0 0" calcMode="spline"/><animateTransform repeatCount="indefinite" dur="1.375s" begin="0s" xlink:href="#_R_G_L_1_G" fill="freeze" attributeName="transform" from="1.8196100000000002 1.8196100000000002" to="1.8196100000000002 1.8196100000000002" type="scale" additive="sum" keyTimes="0;1" values="1.8196100000000002 1.8196100000000002;1.8196100000000002 1.8196100000000002" keySplines="0 0 1 1" calcMode="spline"/><animateTransform repeatCount="indefinite" dur="1.375s" begin="0s" xlink:href="#_R_G_L_1_G" fill="freeze" attributeName="transform" from="-540 -540" to="-540 -540" type="translate" additive="sum" keyTimes="0;1" values="-540 -540;-540 -540" keySplines="0 0 1 1" calcMode="spline"/><animateTransform repeatCount="indefinite" dur="1.375s" begin="0s" xlink:href="#_R_G_L_0_G" fill="freeze" attributeName="transform" from="0 0" to="1.72459 1.72459" type="scale" additive="sum" keyTimes="0;0.3393939;0.4363636;0.5454545;1" values="0 0;0 0;2.13459 2.13459;1.72459 1.72459;1.72459 1.72459" keySplines="0.167 0 0.667 1;0.167 0 0.667 1;0.167 0 0.667 1;0 0 0 0" calcMode="spline"/><animateTransform repeatCount="indefinite" dur="1.375s" begin="0s" xlink:href="#_R_G_L_0_G" fill="freeze" attributeName="transform" from="-97.613 -356.13" to="-97.613 -356.13" type="translate" additive="sum" keyTimes="0;1" values="-97.613 -356.13;-97.613 -356.13" keySplines="0 0 1 1" calcMode="spline"/><animate repeatCount="indefinite" dur="1.375s" begin="0s" xlink:href="#_R_G_L_0_G_M" fill="freeze" attributeName="opacity" from="0" to="0" keyTimes="0;0.3030303;0.3030333;0.6060606;0.6060606;1" values="0;0;1;1;0;0" keySplines="0 0 0 0;0 0 0 0;0 0 0 0;0 0 0 0;0 0 0 0" calcMode="spline"/><animate attributeType="XML" attributeName="opacity" dur="1s" from="0" to="1" xlink:href="#time_group"/></defs><g id="_R_G"><g id="_R_G_L_1_G" transform=" translate(1000, 1000)"><path id="_R_G_L_1_G_D_0_P_0" stroke="#ffffff" stroke-linecap="round" stroke-linejoin="round" fill="none" stroke-width="52" stroke-opacity="1" d=" M577.84 174.57 C469.44,177.51 435.06,182.05 396.16,191.25 C355.48,200.87 294.73,227.57 294.09,249 C293.31,275.03 382.4,297.34 413.27,305.07 C472.86,319.99 518.97,321.66 579.77,323.52 C679.4,326.56 734.29,318.27 760.63,313.55 C817.64,303.34 877.06,279.83 880.6,258.37 C885.06,231.4 849.69,212.5 795.65,196.39 C775.08,190.25 705.95,171.09 577.84,174.57z "/><path id="_R_G_L_1_G_D_1_P_0" stroke="#ffffff" stroke-linecap="round" stroke-linejoin="round" fill="none" stroke-width="52" stroke-opacity="1" d=" M543.79 496.34 C559.3,530.04 603.71,622.9 699.24,672.08 C730.18,688.01 849.62,749.5 953.49,687.88 C961.84,682.93 1029.26,641.55 1046.05,563.81 C1066.97,466.94 1000.91,352.41 877.83,297.41 "/><path id="_R_G_L_1_G_D_2_P_0" stroke="#ffffff" stroke-linecap="round" stroke-linejoin="round" fill="none" stroke-width="52" stroke-opacity="1" d=" M569.88 456.29 C570.75,476.52 555.05,493.63 534.82,494.49 C514.58,495.36 497.48,479.66 496.62,459.43 C495.75,439.2 511.45,422.09 531.68,421.23 C551.91,420.36 569.02,436.06 569.88,456.29z "/><path id="_R_G_L_1_G_D_3_P_0" stroke="#ffffff" stroke-linecap="round" stroke-linejoin="round" fill="none" stroke-width="52" stroke-opacity="1" d=" M880.6 258.37 C880.6,258.37 872.59,850.39 872.59,850.39 C815.7,880.38 633.88,966.73 431.16,904.88 C378.57,888.83 334.73,865.91 299.49,842.67 C299.49,842.67 294.09,249 294.09,249 "/></g><g id="_R_G_L_0_G_M"><g id="_R_G_L_0_G" transform=" translate(441, 1788) rotate(-66)"><path id="_R_G_L_0_G_D_0_P_0" stroke="#ffffff" stroke-linecap="round" stroke-linejoin="round" fill="none" stroke-width="30" stroke-opacity="1" d=" M204.08 302.9 C204.08,302.9 78.49,298.17 78.49,298.17 C69.25,297.82 60.14,300.45 52.55,305.71 C43.01,312.32 32.66,322.14 27.6,337.15 C19.82,360.25 25.44,393.03 50.72,409.57 C76.08,426.15 112.33,420.59 133.51,394.9 C133.51,394.9 204.08,302.9 204.08,302.9z "/></g></g></g><g id="time_group"/></svg>