<svg xmlns="http://www.w3.org/2000/svg" xmlns:xlink="http://www.w3.org/1999/xlink" preserveAspectRatio="xMidYMid meet" width="2000" height="2000" viewBox="0 0 2000 2000" style="width:100%;height:100%"><defs><animateTransform repeatCount="indefinite" dur="1.3333333s" begin="0s" xlink:href="#_R_G_L_0_G" fill="freeze" attributeName="transform" from="0" to="0" type="rotate" additive="sum" keyTimes="0;0.46875;0.9375;1" values="0;33;0;0" keySplines="0.167 0.167 0.667 1;0.333 0 0.833 0.833;0 0 0 0" calcMode="spline"/><animateTransform repeatCount="indefinite" dur="1.3333333s" begin="0s" xlink:href="#_R_G_L_0_G" fill="freeze" attributeName="transform" from="1.45725 1.4203800000000002" to="1.45725 1.4203800000000002" type="scale" additive="sum" keyTimes="0;1" values="1.45725 1.4203800000000002;1.45725 1.4203800000000002" keySplines="0 0 1 1" calcMode="spline"/><animateTransform repeatCount="indefinite" dur="1.3333333s" begin="0s" xlink:href="#_R_G_L_0_G" fill="freeze" attributeName="transform" from="-243.55 -1004.666" to="-243.55 -1004.666" type="translate" additive="sum" keyTimes="0;1" values="-243.55 -1004.666;-243.55 -1004.666" keySplines="0 0 1 1" calcMode="spline"/><animate attributeType="XML" attributeName="opacity" dur="1s" from="0" to="1" xlink:href="#time_group"/></defs><g id="_R_G"><g id="_R_G_L_0_G" transform=" translate(562, 1696)"><path id="_R_G_L_0_G_D_0_P_0" stroke="#ffffff" stroke-linecap="round" stroke-linejoin="round" fill="none" stroke-width="52" stroke-opacity="1" d=" M404.96 717.4 C406.09,709.25 413.37,649.84 369.7,602.47 C333.24,562.93 286.13,558.75 275.67,558.07 C280.01,549.34 285.68,535.38 287.42,517.59 C289.31,498.27 286.32,477.08 273.06,448.37 C254.11,407.35 219.81,333.1 147.69,319.09 C139.14,317.43 78.38,306.57 43.21,346.51 C19.3,373.68 20.95,408.74 22.32,420.95 C26.65,459.52 53.26,493.68 91.88,513.61 C105,520.38 116.32,530.17 125.17,541.98 C130.66,549.3 133.77,558.12 134.04,567.26 C134.44,580.79 134.15,597.67 132.02,616.84 C128.48,648.61 122.26,664.99 118.96,680.83 C110.56,721.06 115.66,783.16 152.91,827.09 C202.51,885.58 283.25,881.36 293.95,880.64 C293.95,880.64 302.1,880.98 302.1,880.98 C306.31,888.97 313.16,899.95 323.99,910.67 C360.29,946.62 409.28,948.03 427.16,948.54 C431.29,948.66 516.84,949.9 569.5,891.08 C591.32,866.72 620.09,817.99 626.96,789.22 C627.51,786.92 628.94,780.51 633.5,773.55 C645.43,755.32 667.57,750.61 675.29,748.74 C729.51,735.6 786.4,689.79 813.71,659.93 C840.48,630.68 842.22,613.06 842.44,606.39 C843.18,584.03 831.01,557.99 809.8,548.93 C792.95,541.73 775.63,547.48 758.86,554.15 C729.29,565.93 685.23,587.04 633.5,625.98 C687.75,588.43 727.82,551.55 755.27,523.46 C783.53,494.56 815.13,457.89 821.55,413.11 C824.11,395.24 821.7,382.77 816.33,372.63 C803.37,348.19 775.51,341.77 773.23,341.29 C746.14,335.51 718.93,351.67 671.37,394.83 C638.38,424.76 595.22,468.03 549.92,526.73 "/><path id="_R_G_L_0_G_D_1_P_0" stroke="#ffffff" stroke-linecap="round" stroke-linejoin="round" fill="none" stroke-width="52" stroke-opacity="1" d=" M544.69 534.56 C577.8,478.05 607.12,435.55 628.27,406.58 C645.4,383.13 668.87,352.52 679.2,306.03 C687.07,270.65 680.88,255.05 676.59,247.26 C664.01,224.44 636.38,211.89 612.6,213.31 C582.57,215.09 561.67,238.97 543.39,262.93 C468.42,361.2 434.56,464.8 432.38,464.05 C431.04,463.58 440.61,422.87 462.42,362.18 C477.51,320.17 486.6,301.62 489.84,268.16 C492.58,239.89 494.76,217.36 480.7,197.64 C461.59,170.82 421.11,161.33 390.59,171.52 C370.76,178.13 352.23,194.03 331.82,238.12 C314.34,275.9 275.67,362.21 287.42,477.1 "/><path id="_R_G_L_0_G_D_2_P_0" stroke="#ffffff" stroke-linecap="round" stroke-linejoin="round" fill="none" stroke-width="52" stroke-opacity="1" d=" M382.1 515.63 C403.91,521.39 450.27,536.76 493.11,578.31 C536.79,620.68 553.46,667.64 559.71,689.32 "/><path id="_R_G_L_0_G_D_3_P_0" stroke="#ffffff" stroke-linecap="round" stroke-linejoin="round" fill="none" stroke-width="52" stroke-opacity="1" d=" M140.51 836.89 C132.51,855.49 121.61,887.8 123.53,928.3 C124.01,938.49 124.77,954.56 130.06,970.09 C132.74,977.99 382.18,1048.31 388.63,1043.22 C419.08,1019.27 425.03,981.99 426.51,968.79 "/><path id="_R_G_L_0_G_D_4_P_0" stroke="#ffffff" stroke-linecap="round" stroke-linejoin="round" fill="none" stroke-width="52" stroke-opacity="1" d=" M355.98 69 C338.31,73.78 302.05,86.16 268.49,118.63 C231.39,154.51 218.27,194.92 213.64,212.65 "/><path id="_R_G_L_0_G_D_5_P_0" stroke="#ffffff" stroke-linecap="round" stroke-linejoin="round" fill="none" stroke-width="52" stroke-opacity="1" d=" M964.55 429.44 C982.29,445.37 1024.6,487.67 1042.9,557.42 C1058.44,616.62 1048.95,666.08 1042.9,689.32 "/><path id="_R_G_L_0_G_D_6_P_0" stroke="#ffffff" stroke-linecap="round" stroke-linejoin="round" fill="none" stroke-width="52" stroke-opacity="1" d=" M900.56 519.55 C910.06,532.03 932.03,564.58 931.9,609.66 C931.84,628.28 928.03,643.9 924.06,655.36 "/></g></g><g id="time_group"/></svg>